<?xml version="1.0" standalone="no"?>
<!DOCTYPE svg PUBLIC "-//W3C//DTD SVG 20010904//EN"
 "http://www.w3.org/TR/2001/REC-SVG-20010904/DTD/svg10.dtd">
<svg version="1.0" xmlns="http://www.w3.org/2000/svg"
 width="1280.000000pt" height="1280.000000pt" viewBox="0 0 1280.000000 1280.000000"
 preserveAspectRatio="xMidYMid meet">
<g transform="translate(0.000000,1280.000000) scale(0.100000,-0.100000)"
fill="#000000" stroke="none">
<path d="M7592 11355 c-169 -180 -257 -389 -292 -690 -5 -50 -10 -120 -10
-157 0 -37 -4 -69 -9 -72 -5 -3 -19 22 -31 57 -56 154 -140 283 -262 405 -131
129 -253 215 -436 306 -66 33 -73 35 -80 19 -4 -10 -7 -182 -7 -383 0 -384 5
-451 56 -710 120 -612 406 -1047 829 -1260 52 -26 124 -58 160 -70 36 -13 71
-28 78 -33 9 -7 12 -270 11 -1256 0 -685 -4 -1255 -8 -1265 -11 -27 -15 -16
-44 104 -90 374 -315 869 -612 1350 -55 88 -59 92 -69 69 -6 -14 -10 -126 -11
-279 0 -228 2 -267 23 -370 50 -244 139 -457 278 -662 42 -62 158 -243 258
-403 l181 -290 0 -410 0 -410 -1222 -3 -1223 -2 -5 23 c-4 13 -5 98 -3 188 l3
164 103 150 c57 83 125 182 153 220 106 148 218 410 268 625 39 164 75 500 55
500 -20 0 -265 -397 -379 -613 -37 -71 -92 -181 -121 -244 -61 -133 -70 -146
-79 -112 -3 13 -4 263 -3 554 l3 530 150 75 c161 80 261 145 365 237 336 297
522 693 586 1243 21 185 14 593 -13 770 l-18 115 -50 3 c-110 7 -278 -56 -389
-146 -110 -89 -218 -259 -275 -432 -11 -36 -32 -114 -45 -174 -14 -59 -27
-110 -30 -113 -7 -7 -14 67 -20 202 -12 263 -75 493 -179 652 -51 79 -145 171
-205 202 l-42 22 -38 -31 c-49 -39 -99 -99 -157 -189 -108 -166 -167 -378
-181 -647 -4 -68 -10 -124 -15 -124 -4 0 -15 21 -24 48 -83 234 -250 440 -484
596 -95 64 -265 156 -288 156 -18 0 -26 -205 -20 -505 6 -298 29 -489 86 -720
154 -625 468 -1023 951 -1205 l95 -36 0 -547 c0 -326 -4 -548 -9 -549 -5 -2
-37 58 -71 132 -34 74 -92 189 -129 255 -128 226 -419 646 -437 628 -4 -4 -14
-61 -20 -126 -36 -340 74 -680 311 -962 42 -49 140 -175 218 -278 l142 -189
-2 -171 -3 -172 -1295 0 -1295 0 -3 60 -2 60 190 220 c105 121 219 249 254
285 194 200 360 467 479 771 63 159 149 471 134 485 -10 10 -281 -320 -442
-536 -246 -332 -444 -667 -568 -959 -18 -43 -31 -61 -37 -55 -7 7 -9 470 -8
1348 3 1178 5 1340 18 1347 8 4 64 30 123 58 493 229 807 658 926 1261 38 193
46 288 45 555 0 255 -18 472 -44 541 -10 25 -12 26 -68 19 -247 -29 -431 -156
-559 -385 -55 -100 -114 -272 -143 -422 -6 -32 -15 -58 -19 -58 -4 0 -11 66
-14 148 -15 358 -103 633 -255 793 -64 68 -146 129 -174 129 -22 0 -139 -126
-191 -206 -111 -172 -172 -385 -186 -647 -3 -70 -10 -128 -15 -130 -4 -1 -21
33 -37 76 -96 263 -316 493 -640 666 -53 28 -103 51 -112 51 -24 0 -32 -99
-31 -400 1 -669 142 -1190 425 -1566 159 -213 414 -399 643 -470 42 -13 61
-25 67 -42 10 -27 11 -2374 1 -2442 -4 -25 -11 -40 -14 -34 -4 6 -29 72 -54
145 -208 600 -622 1292 -1223 2047 -164 206 -457 552 -467 552 -11 0 6 -89 46
-255 173 -706 494 -1313 946 -1785 160 -167 752 -853 764 -886 11 -27 14 -285
4 -322 l-6 -22 -642 0 c-352 0 -647 -4 -654 -8 -9 -7 -12 -70 -10 -283 l3
-274 303 -3 303 -2 9 -23 c5 -12 43 -146 84 -297 71 -261 243 -887 647 -2360
99 -360 212 -772 252 -915 39 -143 76 -263 82 -267 15 -12 8163 -10 8170 1 4
8 356 1447 500 2046 135 561 437 1800 441 1807 3 4 171 8 375 8 l369 0 -2 282
-3 283 -827 3 -828 2 0 150 0 149 257 298 c141 164 312 355 379 425 357 372
635 854 825 1428 46 141 105 363 129 485 6 33 14 68 16 78 11 39 -19 10 -143
-135 -613 -718 -1025 -1313 -1324 -1913 -66 -132 -124 -241 -129 -243 -6 -2
-10 327 -10 890 l0 894 90 39 c243 103 483 291 642 500 274 361 407 888 377
1493 -9 175 -35 391 -49 406 -13 13 -163 -12 -237 -39 -261 -94 -443 -349
-518 -725 -9 -47 -21 -89 -25 -94 -10 -10 -17 57 -24 214 -16 373 -159 698
-360 819 -53 31 -59 33 -83 20 -35 -19 -146 -149 -190 -224 -94 -160 -147
-350 -165 -598 -7 -86 -15 -154 -19 -150 -4 5 -23 48 -43 97 -108 270 -334
495 -663 659 -81 41 -92 44 -98 29 -14 -33 -18 -553 -6 -692 75 -861 387
-1428 924 -1680 56 -26 120 -53 142 -60 22 -7 46 -17 53 -23 9 -7 12 -183 12
-818 0 -444 -4 -810 -9 -813 -9 -6 -13 2 -97 209 -110 273 -301 633 -502 950
-105 166 -315 470 -361 525 l-30 35 0 -70 c-1 -145 37 -425 84 -621 92 -387
243 -695 489 -1004 51 -63 167 -219 259 -347 l168 -232 -3 -153 -3 -153 -1277
-3 -1278 -2 -6 24 c-3 13 -4 88 -2 167 l3 144 251 405 c138 223 279 443 313
490 231 311 393 730 447 1155 19 154 22 487 5 620 -16 125 -22 155 -31 155
-18 0 -312 -501 -463 -790 -197 -377 -370 -807 -467 -1160 -37 -132 -41 -141
-51 -114 -10 25 -11 2716 -1 2729 4 6 77 45 162 87 346 172 575 404 741 753
109 231 172 473 199 775 16 165 8 526 -15 690 -22 164 -16 153 -88 145 -340
-37 -585 -288 -678 -695 -40 -176 -40 -175 -50 -159 -5 8 -9 58 -9 111 0 185
-45 432 -104 578 -39 96 -100 193 -160 254 -57 59 -140 116 -167 116 -9 0 -44
-29 -77 -65z m-293 -1042 c-1 -39 -2 -43 -9 -23 -12 36 -12 70 0 70 6 0 10
-21 9 -47z m-5519 -816 c0 -31 -3 -38 -10 -27 -13 20 -13 83 0 75 6 -3 10 -25
10 -48z m8329 -534 c1 -13 -3 -23 -8 -23 -10 0 -20 78 -11 86 6 7 18 -32 19
-63z m-5502 -515 c-2 -13 -4 -3 -4 22 0 25 2 35 4 23 2 -13 2 -33 0 -45z"/>
</g>
</svg>
